<?xml version="1.0" encoding="utf-8"?>
<svg xmlns="http://www.w3.org/2000/svg" xmlns:xlink="http://www.w3.org/1999/xlink" width="811" height="685" viewBox="0 0 811 685">
  <defs>
    <style>
      .cls-1 {
        font-size: 72px;
        fill: #0fe833;
        text-anchor: middle;
        font-family: "Adobe Heiti Std";
        text-transform: uppercase;
      }
      .st0{fill-rule:evenodd;clip-rule:evenodd;fill:#19CE60;}
    </style>
  </defs>
  <path class="st0" d="M60.88,141.7l30.29,0.02c2.19-4.01,0.94-11.09-2.17-15.27c-8.39-11.24-26.12-7.09-28.86,6.52
		C59.64,135.4,59.75,139.68,60.88,141.7z"/>
	<path class="st0" d="M184.49,42.39c-3.09-4.88-11.99-15.44-7.15-23.28c4.2-6.81,10.2,0.89,11.06-2.79c0.69-2.97-1.13-5.6,2.96-5.56
		c3.79,0.04,3.91-3.21,3.42-4.58c-1.23-3.46-7.48-4.67-12.09-4.24c-4.86,0.46-8.92,2.53-11.9,4.78c-8.18,6.17-7.4,16.22-5.1,25.55
		c2.09,8.5,5.92,16.7,9.65,23.7c1.89,3.55,4.53,7.31,4.09,12.41c-0.49,5.72-5.02,8.44-8.92,5.87c-1.45-0.95-5.01-5.52-5.57-6.89
		c-2.52-6.2-2.74-7.76-6.51-14.38c-3.16-5.54-9.76-14.39-14.79-18.76c-5.51-4.8-7.85-6.79-14.21-10.71
		c-2.91-1.79-15.54,4.99-17.76,6.45c-7.05,4.66-12.74,9.94-14.64,18.91c-0.92,4.37-0.51,10.69,1.04,14.63
		c0.58,1.47,2.28,3.82,3.16,5.08c0.6,0.86,1.12,1.53,1.82,2.4c2.91,3.58,3.02,3.53,6.15,6.52l4.54,3.79
		c-6.47,3.11-15.03-5.94-18.36-10.67c-7.71-10.95-10.64-20.05-3.8-33.21c3.82-7.34,12.06-14.64,19.66-17.9
		c1.15-0.49,5.04-1.71,5.61-2.08c-25.3-9.2-50.44-6.57-73.1,7.52c-5.38,3.35-10.09,7.4-14.46,11.85
		c-6.06,6.17-12.36,14.97-15.93,23.45c-8.88,21.07-9.88,43.17-0.65,65.11c1.88,4.47,4.21,8.79,6.77,12.73
		c0.57,0.87,2.08,3.48,2.95,3.61c1.96,0.3,25.71,0.01,25.84-0.13c1.02-1.02-1.86-13.84,3.27-23.05c3.03-5.43,7.43-9.85,13.7-12.41
		c6.72-2.74,15.54-2.78,22.14,0.03c9.37,4,15.63,12.38,16.66,22.5c0.33,3.22-0.14,11.41,0.22,13.07c2.18,0,26.63,0.28,27.54-0.19
		c1.97-1.02,3.65-2.59,5.04-4.4c1.37-1.79,2.68-3.18,3.92-5.32c2.31-4,4.02-8.92,5.21-13.47c0.33-1.26,1.45-6.99,1.79-7.64
		c2.19-0.91,4.68-1.11,7.23-0.97c2.89,0.17,5.07-0.18,7.77-0.71c10.09-1.96,16.63-2.63,24.25-9.11c5.6-4.76,5.85-5.65,7.96-9.06
		c2.26-3.64,3.43-7.19,3.75-12.55C199.47,66.04,190.36,51.67,184.49,42.39z M136.99,61.1c-9.41,1.29-11.52-12.89-1.94-14.22
		C144.39,45.59,146.32,59.82,136.99,61.1z"/>
    <path class="st0" d="M119.43,153.72c0.65,0.47,1.79,4.34,2.18,5.4c0.58,1.54,1.12,4.64,2.86,4.78c1.91,0.16,2.12-1.98,2.99-4.62
		c0.33-0.99,1.53-4.93,2.01-5.58c0.36,0.5,0.21,1.54,0.21,2.16c-0.03,4.59-0.95,9.24,2.25,7.71c0.34-1.45,0.15-5.11,0.15-6.9
		c0-2.24,0.39-4.68-1.87-5.17c-2.54-0.55-3.17,1.39-3.75,3.16c-0.61,1.86-1.19,3.59-1.82,5.44c-1.3-1.88-1.59-5.59-2.93-7.53
		c-0.74-1.07-2.33-1.59-3.7-0.74c-1.34,0.83-1.15,2.15-1.15,4.03c0,0.96-0.2,6.99,0.19,7.6c0.33,0.51,1.34,0.71,1.87,0.15
		C119.71,162.8,118.76,154.85,119.43,153.72z"/>
    <path class="st0" d="M67.84,154.64c0.63,0.38,2.76,3.47,3.34,4.28l3.35,4.48c0.77,0.79,2.1,0.84,2.53-0.27
		c0.29-0.74,0.18-10.51,0.02-11.35c-1.05-0.7-1.67-0.71-2.56,0.17l-0.12,6.87c-2.32-1.28-4.7-8.47-7.89-7.45
		c-1.51,0.48-1.38,2.17-1.38,3.89c0,1.74,0,3.48,0,5.22c0,1.57-0.35,3.86,1.57,3.51c1.62-0.29,1.13-2.5,1.13-4.11
		C67.84,158.14,67.84,156.39,67.84,154.64z"/>
  <text id="mei_shi_tian_xia" data-name="mei   shi    tian   xia" class="cls-1" x="408.265" y="655.523"><tspan x="408.265">mei   shi    tian   xia</tspan></text>
</svg>
